<?xml version="1.0" encoding="UTF-8"?>
<svg id="Layer_1" data-name="Layer 1" xmlns="http://www.w3.org/2000/svg" viewBox="0 0 600 419.88">
  <defs>
    <style>
      .cls-1 {
        fill: #fff;
      }
    </style>
  </defs>
  <g>
    <path class="cls-1" d="M45.62,381.19l-14.79,37.76h-4.88l-14.79-37.76v37.76H0v-52.46h15.65l12.74,32.72,12.74-32.72h15.73v52.46h-11.25v-37.76Z"/>
    <path class="cls-1" d="M63.95,366.48h11.33v31.15c0,7.32,4.01,12.35,12.19,12.35s12.03-5.03,12.03-12.35v-31.15h11.33v31.46c0,13.06-7.47,21.95-23.36,21.95s-23.52-8.97-23.52-21.87v-31.54Z"/>
    <path class="cls-1" d="M120.43,403.05c3.7,3.85,9.44,7.08,16.68,7.08,6.13,0,9.12-2.91,9.12-5.9,0-3.93-4.56-5.27-10.62-6.69-8.57-1.97-19.59-4.33-19.59-16.05,0-8.73,7.55-15.81,19.9-15.81,8.34,0,15.26,2.52,20.45,7.32l-6.21,8.18c-4.25-3.93-9.91-5.74-15.02-5.74s-7.71,2.2-7.71,5.35c0,3.54,4.41,4.64,10.46,6.06,8.65,1.97,19.66,4.56,19.66,16.2,0,9.6-6.84,16.83-21,16.83-10.07,0-17.3-3.38-22.26-8.34l6.14-8.49Z"/>
    <path class="cls-1" d="M161.8,366.48h11.17v52.46h-11.17v-52.46Z"/>
    <path class="cls-1" d="M177.53,392.75c0-16.13,12.19-27.14,27.53-27.14,11.96,0,18.64,6.29,22.34,12.82l-9.6,4.72c-2.2-4.25-6.92-7.63-12.74-7.63-9.12,0-16.05,7.32-16.05,17.23s6.92,17.23,16.05,17.23c5.82,0,10.54-3.3,12.74-7.63l9.6,4.64c-3.78,6.53-10.38,12.9-22.34,12.9-15.34,0-27.53-11.01-27.53-27.14Z"/>
    <path class="cls-1" d="M247.62,366.48h11.17v52.46h-11.17v-52.46Z"/>
    <path class="cls-1" d="M277.03,383.7v35.24h-11.17v-52.46h11.48l24.3,33.98v-33.98h11.17v52.46h-10.78l-25.01-35.24Z"/>
    <path class="cls-1" d="M322.42,403.05c3.7,3.85,9.44,7.08,16.68,7.08,6.13,0,9.12-2.91,9.12-5.9,0-3.93-4.56-5.27-10.62-6.69-8.57-1.97-19.59-4.33-19.59-16.05,0-8.73,7.55-15.81,19.9-15.81,8.34,0,15.26,2.52,20.45,7.32l-6.21,8.18c-4.25-3.93-9.91-5.74-15.02-5.74s-7.71,2.2-7.71,5.35c0,3.54,4.41,4.64,10.46,6.06,8.65,1.97,19.66,4.56,19.66,16.2,0,9.6-6.84,16.83-21,16.83-10.07,0-17.3-3.38-22.26-8.34l6.14-8.49Z"/>
    <path class="cls-1" d="M375.36,376.31h-15.34v-9.83h41.85v9.83h-15.26v42.63h-11.25v-42.63Z"/>
    <path class="cls-1" d="M405.72,366.48h11.17v52.46h-11.17v-52.46Z"/>
    <path class="cls-1" d="M436.08,376.31h-15.34v-9.83h41.85v9.83h-15.26v42.63h-11.25v-42.63Z"/>
    <path class="cls-1" d="M466.44,366.48h11.33v31.15c0,7.32,4.01,12.35,12.19,12.35s12.03-5.03,12.03-12.35v-31.15h11.33v31.46c0,13.06-7.47,21.95-23.36,21.95s-23.52-8.97-23.52-21.87v-31.54Z"/>
    <path class="cls-1" d="M532.51,376.31h-15.34v-9.83h41.85v9.83h-15.26v42.63h-11.25v-42.63Z"/>
    <path class="cls-1" d="M562.87,366.48h37.13v9.6h-25.96v11.4h25.41v9.6h-25.41v12.19h25.96v9.67h-37.13v-52.46Z"/>
  </g>
  <g>
    <path class="cls-1" d="M337.08,41.41c0-3.77-3.02-6.78-6.7-6.78s-6.78,3.01-6.78,6.78,3.1,6.7,6.78,6.7,6.7-3.02,6.7-6.7Z"/>
    <path class="cls-1" d="M440.52,207.32c3.69,0,6.7-3.02,6.7-6.7s-3.02-6.78-6.7-6.78-6.78,3.01-6.78,6.78,3.1,6.7,6.78,6.7Z"/>
    <path class="cls-1" d="M475.97,125.86c3.68,0,6.7-3.02,6.7-6.7s-3.02-6.78-6.7-6.78-6.78,3.01-6.78,6.78,3.1,6.7,6.78,6.7Z"/>
    <path class="cls-1" d="M92.55,119.49c-4.62,0-8.65,3.94-8.65,8.81s4.03,8.81,8.65,8.81,8.9-4.03,8.9-8.81-4.11-8.81-8.9-8.81Z"/>
    <path class="cls-1" d="M90.81,288.06c3.69,0,6.71-3.02,6.71-6.72s-3.02-6.8-6.71-6.8-6.8,3.02-6.8,6.8,3.11,6.72,6.8,6.72Z"/>
    <path class="cls-1" d="M60.37,48.87c0-5.29-4.28-9.65-9.57-9.65s-9.65,4.36-9.65,9.65,4.36,9.65,9.65,9.65,9.57-4.36,9.57-9.65Z"/>
    <path class="cls-1" d="M569.25,197.6c14.75-20.22,23.17-44.24,23.17-70.78,0-69.93-61.93-126.82-139.45-126.82h-169.91v38.61C252.49,14.52,213.4,0,171.01,0H.8v337.05h170.21c42.39,0,81.48-14.52,112.04-38.61v38.61h205.22v-83h23.96v83h87.76v-139.45h-30.75ZM135.76,93.05h27.45v67.15h-27.45v-67.15ZM97.71,15.3h27.45v67.15h-27.45V15.3ZM18.15,15.3h33.91c19.31,0,35.17,15.11,35.17,33.58s-15.86,33.58-35.17,33.58H18.15V15.3ZM121.28,322.47h-26.86v-16.54h-11.58l-4.45,16.54h-27.87l17.96-67.15h52.8v67.15ZM59.17,197.17v-22.66h53.47v22.66h-13.01v44.49h-27.45v-44.49h-13.01ZM125.28,160.2h-33.91c-19.22,0-35.17-15.11-35.17-33.58s15.95-33.58,35.17-33.58h12.67v15.11h21.24v52.04ZM177.78,322.47h-45.91v-67.15h27.45v44.49h18.47v22.66ZM373.61,15.45h51.67v22.61h-22.61c-2.43,0-4.19,1.84-4.19,4.44s1.76,4.44,4.19,4.44h7.54v12.9h15.08v22.61h-51.67V15.45ZM391.54,114.13c-3.61,0-5.9,2.18-5.9,5.19v40.87h-27.93v-67h67.59v67h-27.93v-40.87c0-3.01-2.82-5.19-5.82-5.19ZM300.4,15.45h33.5c15.41,0,27.72,11.31,27.72,25.21,0,5.28-1.68,10.05-4.61,14.07h6.11v27.72h-26.55v-16.5h-9.63v16.5h-26.55V15.45ZM300.4,241.66v-22.61h13.23l-4.69-17.67c-4.1-15.49,3.52-26.72,17.92-26.72h22.28v22.61h-12.14l4.86,18.43c3.94,14.99-3.69,25.96-18.09,25.96h-23.37ZM394.03,322.47h-26.55v-40.87c0-3.01-2.68-5.19-5.53-5.19-3.43,0-5.61,2.18-5.61,5.19v40.87h-26.55v-67h64.24v67ZM375.93,241.66h-23.37v-22.61h13.23l-4.69-17.67c-4.1-15.49,3.52-26.72,17.92-26.72h22.28v22.61h-12.14l4.86,18.43c3.94,14.99-3.68,25.96-18.09,25.96ZM470.93,287.21h-20.6c-.59-4.36-4.69-7.87-9.38-7.87-5.28,0-9.63,4.36-9.63,9.63s4.35,9.63,9.63,9.63c4.69,0,8.96-3.6,9.38-8.04h20.6v31.91h-31.32c-19.43,0-35.09-15.08-35.09-33.5s15.66-33.5,35.09-33.5h31.32v31.74ZM470.93,241.66h-26.8v-16.5h-11.56l-4.44,16.5h-27.8l17.92-67h52.68v67ZM506.37,160.2h-26.8v-16.5h-11.56l-4.44,16.5h-27.81l17.92-67h52.68v67ZM516.85,93.2h27.39v67h-27.39v-67ZM581.26,278.08h-22.61c-2.43,0-4.19,1.84-4.19,4.44s1.76,4.44,4.19,4.44h7.54v12.9h15.08v22.61h-51.67v-67h51.67v22.61Z"/>
  </g>
</svg>