<?xml version="1.0" encoding="UTF-8"?>
<svg id="Layer_1" data-name="Layer 1" xmlns="http://www.w3.org/2000/svg" viewBox="0 0 233.52 496.66">
  <path d="M39.81,278.84c0-2.78-2.22-5-4.94-5s-5,2.22-5,5,2.28,4.94,5,4.94,4.94-2.22,4.94-4.94Z"/>
  <path d="M116.02,401.08c2.71,0,4.94-2.22,4.94-4.94s-2.22-5-4.94-5-5,2.22-5,5,2.28,4.94,5,4.94Z"/>
  <path d="M142.14,341.06c2.71,0,4.94-2.22,4.94-4.94s-2.22-5-4.94-5-5,2.22-5,5,2.28,4.94,5,4.94Z"/>
  <path d="M43.89,36.01c0-3.9-3.15-7.11-7.05-7.11s-7.11,3.22-7.11,7.11,3.22,7.11,7.11,7.11,7.05-3.22,7.05-7.11Z"/>
  <path d="M227.94,341.77c0-51.52-45.63-93.44-102.75-93.44h-10.56c65.26,0,118.89-55.87,118.89-124.17S179.89,0,114.63,0H0v496.66h151.2v-61.15h17.66v61.15h64.66v-102.75h-22.66c10.86-14.9,17.07-32.59,17.07-52.15ZM99.44,68.55h20.22v49.48h-20.22v-49.48ZM96.57,188.12h20.22v32.78h13.61v16.7h-33.83v-49.48ZM88.14,282.92h5.55v9.5h11.11v16.66h-38.07v-49.37h38.07v16.66h-16.66c-1.79,0-3.09,1.36-3.09,3.27s1.3,3.27,3.09,3.27ZM79.93,332.42c-2.66,0-4.35,1.61-4.35,3.83v30.11h-20.58v-49.37h49.8v49.37h-20.58v-30.11c0-2.22-2.08-3.83-4.29-3.83ZM43,145.27v-16.7h39.39v16.7h-9.59v32.78h-20.22v-32.78h-9.59ZM49.87,188.12h38.9v49.48h-19.79v-12.18h-8.53l-3.28,12.18h-20.53l13.23-49.48ZM71.4,11.27h20.22v49.48h-20.22V11.27ZM76.07,68.55v11.13h15.65v38.34h-24.99c-14.16,0-25.91-11.13-25.91-24.74s11.75-24.74,25.91-24.74h9.34ZM12.78,11.27h24.99c14.22,0,25.91,11.13,25.91,24.74s-11.69,24.74-25.91,24.74H12.78V11.27ZM12.78,259.71h24.68c11.35,0,20.42,8.33,20.42,18.57,0,3.89-1.23,7.41-3.39,10.37h4.5v20.42h-19.56v-12.16h-7.1v12.16H12.78v-49.37ZM12.78,426.38v-16.66h9.75l-3.46-13.02c-3.02-11.41,2.59-19.68,13.21-19.68h16.41v16.66h-8.95l3.58,13.58c2.9,11.04-2.71,19.13-13.33,19.13H12.78ZM81.77,485.92h-19.56v-30.11c0-2.22-1.97-3.83-4.07-3.83-2.53,0-4.13,1.61-4.13,3.83v30.11h-19.56v-49.37h47.33v49.37ZM68.43,426.38h-17.22v-16.66h9.75l-3.46-13.02c-3.02-11.41,2.59-19.68,13.21-19.68h16.41v16.66h-8.95l3.58,13.58c2.9,11.04-2.72,19.13-13.33,19.13ZM138.42,459.95h-15.18c-.43-3.21-3.46-5.8-6.91-5.8-3.89,0-7.1,3.21-7.1,7.1s3.21,7.1,7.1,7.1c3.46,0,6.6-2.65,6.91-5.92h15.18v23.51h-23.08c-14.32,0-25.85-11.11-25.85-24.68s11.54-24.68,25.85-24.68h23.08v23.39ZM138.42,426.38h-19.75v-12.16h-8.52l-3.27,12.16h-20.49l13.21-49.37h38.81v49.37ZM164.54,366.36h-19.75v-12.16h-8.52l-3.27,12.16h-20.49l13.21-49.37h38.81v49.37ZM172.26,317h20.18v49.37h-20.18v-49.37ZM219.72,436.56v16.66h-16.66c-1.79,0-3.09,1.36-3.09,3.27s1.3,3.27,3.09,3.27h5.55v9.5h11.11v16.66h-38.07v-49.37h38.07Z"/>
  <path d="M66.32,212.24c2.72,0,4.95-2.23,4.95-4.95s-2.23-5.01-4.95-5.01-5.01,2.23-5.01,5.01,2.29,4.95,5.01,4.95Z"/>
  <path d="M67.59,101.02c3.53,0,6.56-2.97,6.56-6.49s-3.03-6.49-6.56-6.49-6.37,2.91-6.37,6.49,2.97,6.49,6.37,6.49Z"/>
</svg>